#!OML:ASF I:\golf\golf\golf 2\Subject 1\2002-09-07\Subject1.ASF
:FULLY-SPECIFIED
:DEGREES
381
root -6.23872 18.0271 -3.24673 -164.394 9.03227 -174.235
lowerback -3.75602 9.53212 10.0205
upperback -7.31705 14.3595 4.19621
thorax -4.50746 7.37902 -0.948953
lowerneck -13.4262 -11.2203 1.66377
upperneck 10.2372 -15.2819 -1.30525
head 5.01163 -7.52494 -1.86987
rclavicle 4.96962e-014 3.18055e-015
rhumerus 80.9081 28.5957 -63.5182
rradius 46.7663
rwrist -8.29225
rhand -39.7452 25.6579
rfingers 7.12502
rthumb -12.7221 -3.93456
lclavicle 4.96962e-014 3.18055e-015
lhumerus 60.3492 -4.42005 67.5467
lradius 47.1252
lwrist 24.6703
lhand -23.6694 13.2402
lfingers 7.12502
lthumb -177.203 -136.798
rfemur 6.33181 -7.89308 20.1402
rtibia 25.046
rfoot 16.7692 -24.8195
rtoes 9.35172
lfemur -27.8849 -12.9441 -12.0269
ltibia 20.8554
lfoot 46.1924 -29.193
ltoes 40.1363
382
root -6.2326 18.0284 -3.21847 -164.312 9.40308 -174.226
lowerback -3.64146 9.50969 9.87823
upperback -7.22726 14.2986 4.18103
thorax -4.49926 7.34235 -0.909261
lowerneck -13.6609 -11.0667 1.74517
upperneck 10.1932 -15.08 -1.34621
head 5.02997 -7.42293 -1.89096
rclavicle -2.50469e-014 -3.18055e-014
rhumerus 80.1941 28.7764 -63.8767
rradius 46.0333
rwrist -8.58691
rhand -39.4511 25.273
rfingers 7.12502
rthumb -12.4386 -4.33686
lclavicle -2.50469e-014 -3.18055e-014
lhumerus 59.9319 -4.9431 68.1599
lradius 46.2953
lwrist 24.4471
lhand -23.4509 13.3509
lfingers 7.12502
lthumb -176.992 -136.691
rfemur 6.13707 -7.91186 20.0826
rtibia 25.1033
rfoot 16.6076 -24.9225
rtoes 9.1299
lfemur -27.9961 -12.9786 -11.9149
ltibia 20.8277
lfoot 45.686 -29.2423
ltoes 39.8855
383
root -6.2274 18.0277 -3.19382 -164.27 9.6524 -174.166
lowerback -3.59494 9.44685 9.83687
upperback -7.09536 14.1727 4.20317
thorax -4.40173 7.2759 -0.865013
lowerneck -13.8367 -10.9112 1.81345
upperneck 10.1101 -14.8686 -1.41212
head 5.02591 -7.31973 -1.91124
rclavicle -3.45885e-014 5.40694e-014
rhumerus 79.5701 28.9805 -64.0712
rradius 45.4284
rwrist -8.99927
rhand -39.0606 24.671
rfingers 7.12502
rthumb -12.0621 -4.96135
lclavicle -3.45885e-014 5.40694e-014
lhumerus 59.4781 -5.40108 68.7854
lradius 45.566
lwrist 24.4017
lhand -23.16 13.5953
lfingers 7.12502
lthumb -176.711 -136.45
rfemur 6.0178 -8.04777 20.0987
rtibia 25.1593
rfoot 16.2836 -25.0963
rtoes 9.17716
lfemur -28.0352 -13.027 -11.7594
ltibia 20.7481
lfoot 45.4212 -29.106
ltoes 40.0447
384
root -6.22221 18.0277 -3.1698 -164.311 9.99289 -174.253
lowerback -3.48982 9.40237 9.66053
upperback -6.94182 14.0554 4.1654
thorax -4.32251 7.20958 -0.822578
lowerneck -14.0021 -10.7293 1.84877
upperneck 10.0822 -14.6303 -1.3971
head 5.04727 -7.19849 -1.90321
rclavicle -8.56762e-014 -6.20208e-014
rhumerus 78.907 29.1722 -64.3609
rradius 44.8664
rwrist -9.32888
rhand -38.5381 24.1653
rfingers 7.12502
rthumb -11.5583 -5.49596
lclavicle -8.56762e-014 -6.20208e-014
lhumerus 59.0425 -5.81897 69.2838
lradius 44.8869
lwrist 24.6218
lhand -22.928 13.7167
lfingers 7.12502
lthumb -176.487 -136.332
rfemur 5.96147 -8.04872 19.9413
rtibia 25.2173
rfoot 15.9856 -25.1287
rtoes 8.88348
lfemur -27.9548 -12.9909 -11.8226
ltibia 20.6389
lfoot 45.0766 -29.2882
ltoes 39.7563
385
root -6.21458 18.0296 -3.14263 -164.346 10.3336 -174.443
lowerback -3.32458 9.3502 9.33417
upperback -6.84695 13.9422 4.08816
thorax -4.36019 7.14458 -0.765861
lowerneck -14.0951 -10.5347 1.87871
upperneck 10.0093 -14.3828 -1.30713
head 5.04935 -7.06934 -1.86526
rclavicle 1.86858e-014 -6.83819e-014
rhumerus 78.202 29.3318 -64.665
rradius 44.3117
rwrist -9.7826
rhand -37.8575 24.1488
rfingers 7.12502
rthumb -10.9018 -5.5482
lclavicle 1.86858e-014 -6.83819e-014
lhumerus 58.5944 -6.26189 69.7646
lradius 44.1825
lwrist 24.9008
lhand -22.906 13.795
lfingers 7.12502
lthumb -176.466 -136.255
rfemur 5.8781 -7.98521 19.7235
rtibia 25.2724
rfoot 15.6081 -25.1889
rtoes 8.83587
lfemur -27.9212 -12.9507 -11.9808
ltibia 20.5397
lfoot 44.8463 -29.3043
ltoes 39.6068
